# xmcd CD database file generated by OrangeCD 5.2
#
# Track frame offsets:
#	150
#	24718
#	63605
#	92527
#	135493
#	157658
#	188066
#	205963
#	227886
#	240044
#	257872
#	270752
#	293837
#	308596
#	337795
#
# Disc length: 4796 seconds
#
# Revision: 0
# Processed by: cddbd v1.5.1PL0 Copyright (c) Steve Scherf et al.
# Submitted via: OrangeCD 5.2
#
DISCID=bb12ba0f
DTITLE=Smith Jimmy - Bluesmith and Livin' It Up!
DYEAR=1972
DGENRE=Blues
TTITLE0=Straight Ahead
TTITLE1=Absolutely Funky
TTITLE2=Lolita
TTITLE3=Mournin' Wes
TTITLE4=Blues For 3 and 1
TTITLE5=Bluesmith
TTITLE6=Mission Impossible
TTITLE7=Refractions
TTITLE8=The Gentle Rain
TTITLE9=Burning Spear
TTITLE10=Go Away Little Girl
TTITLE11=Livin' It Up
TTITLE12=This Nearly Was Mine
TTITLE13=Big Boss Man
TTITLE14=Valley Of The Dolls
EXTD=
EXTT0=
EXTT1=
EXTT2=
EXTT3=
EXTT4=
EXTT5=
EXTT6=
EXTT7=
EXTT8=
EXTT9=
EXTT10=
EXTT11=
EXTT12=
EXTT13=
EXTT14=
PLAYORDER=
